<svg xmlns="http://www.w3.org/2000/svg" xmlns:xlink="http://www.w3.org/1999/xlink" width="100" height="100" viewBox="0 0 100 100"><g><g transform="translate(50 50) scale(0.69 0.69) rotate(0) translate(-50 -50)" style="fill:#1A1A1A"><svg fill="#1A1A1A" xmlns="http://www.w3.org/2000/svg" xmlns:xlink="http://www.w3.org/1999/xlink" version="1.1" x="0px" y="0px" viewBox="0 0 100 100" enable-background="new 0 0 100 100" xml:space="preserve"><path d="M94.287,50.413c0,23.738-19.234,42.957-42.941,42.957c-23.725,0-42.958-19.219-42.958-42.957  c0-23.708,19.233-42.927,42.958-42.927C75.053,7.486,94.287,26.705,94.287,50.413L94.287,50.413z M98.613,50.413  c0-26.094-21.175-47.269-47.268-47.269c-26.125,0-47.285,21.175-47.285,47.269c0,26.124,21.16,47.299,47.285,47.299  C77.438,97.712,98.613,76.537,98.613,50.413L98.613,50.413z"></path><g><path d="M77.572,22.2c-7.734,0.606-15.218,2.963-21.916,6.86c-0.236,2.045-0.295,4.104-0.162,6.15   c-0.875-1.497-1.541-3.127-1.986-4.816c-10.387,6.816-17.929,17.159-21.249,29.117c-3.808,5.172-6.964,10.801-9.379,16.744   c10.847-17.989,25.442-33.43,42.81-45.299c-10.478,9.677-20.391,19.96-29.681,30.777c12.18-2.297,23.175-8.802,31.044-18.374   c-3.053-0.268-6.105-0.179-9.144,0.297c3.452-1.572,7.157-2.461,10.935-2.609c1.082-1.481,2.105-3.037,3.038-4.623   c-2.415,0.207-4.815,0.638-7.142,1.289c2.518-1.526,5.289-2.593,8.18-3.186C74.979,30.646,76.55,26.498,77.572,22.2z"></path></g></svg></g></g></svg>